<svg width="30" height="30" viewBox="0 0 30 30" fill="none" xmlns="http://www.w3.org/2000/svg">
<path fill-rule="evenodd" clip-rule="evenodd" d="M3.07629 15C3.07629 14.7514 3.17507 14.5129 3.35088 14.3371C3.5267 14.1613 3.76515 14.0625 4.01379 14.0625L26.2513 14.0775C26.3744 14.0777 26.4963 14.1021 26.61 14.1493C26.7236 14.1966 26.8269 14.2658 26.9138 14.353C27.0008 14.4401 27.0697 14.5436 27.1167 14.6574C27.1636 14.7712 27.1877 14.8931 27.1875 15.0162C27.1874 15.1394 27.163 15.2612 27.1157 15.3749C27.0684 15.4886 26.9992 15.5919 26.9121 15.6788C26.8249 15.7657 26.7215 15.8347 26.6077 15.8816C26.4938 15.9286 26.3719 15.9527 26.2488 15.9525L4.01254 15.9375C3.76412 15.9372 3.52598 15.8383 3.35044 15.6625C3.17489 15.4867 3.07629 15.2484 3.07629 15Z" fill="#1E1E1E"/>
<path fill-rule="evenodd" clip-rule="evenodd" d="M13.1463 5.58667C13.322 5.76229 13.4209 6.00048 13.4211 6.24892C13.4213 6.49735 13.323 6.73573 13.1476 6.91168L5.07506 14.9992L13.1476 23.0867C13.3182 23.2636 13.4126 23.5004 13.4104 23.7462C13.4081 23.9921 13.3094 24.2271 13.1355 24.4009C12.9616 24.5746 12.7264 24.6731 12.4806 24.6751C12.2348 24.6771 11.998 24.5825 11.8213 24.4117L3.08631 15.6617C2.91075 15.4859 2.81213 15.2476 2.81213 14.9992C2.81213 14.7507 2.91075 14.5125 3.08631 14.3367L11.8213 5.58667C11.9971 5.41111 12.2354 5.3125 12.4838 5.3125C12.7322 5.3125 12.9705 5.41111 13.1463 5.58667Z" fill="#1E1E1E"/>
</svg>
