<svg width="109" height="109" viewBox="0 0 109 109" fill="none" xmlns="http://www.w3.org/2000/svg">
<g clip-path="url(#clip0_514_2995)">
<path d="M34.0625 6.8125H6.8125V34.0625H34.0625V6.8125ZM40.875 0V40.875H0V0H40.875ZM13.625 13.625H27.25V27.25H13.625V13.625ZM102.188 6.8125H74.9375V34.0625H102.188V6.8125ZM109 0V40.875H68.125V0H109ZM81.75 13.625H95.375V27.25H81.75V13.625ZM34.0625 74.9375H6.8125V102.188H34.0625V74.9375ZM40.875 68.125V109H0V68.125H40.875ZM13.625 81.75H27.25V95.375H13.625V81.75ZM47.6875 0H54.5V6.8125H47.6875V0ZM54.5 6.8125H61.3125V13.625H54.5V6.8125ZM47.6875 13.625H54.5V20.4375H47.6875V13.625ZM54.5 20.4375H61.3125V27.25H54.5V20.4375ZM47.6875 27.25H54.5V34.0625H47.6875V27.25ZM54.5 34.0625H61.3125V40.875H54.5V34.0625ZM47.6875 40.875H54.5V47.6875H47.6875V40.875ZM47.6875 54.5H54.5V61.3125H47.6875V54.5ZM54.5 61.3125H61.3125V68.125H54.5V61.3125ZM47.6875 68.125H54.5V74.9375H47.6875V68.125ZM54.5 74.9375H61.3125V81.75H54.5V74.9375ZM47.6875 81.75H54.5V88.5625H47.6875V81.75ZM54.5 88.5625H61.3125V95.375H54.5V88.5625ZM47.6875 95.375H54.5V102.188H47.6875V95.375ZM54.5 102.188H61.3125V109H54.5V102.188ZM102.188 54.5H109V61.3125H102.188V54.5ZM6.8125 54.5H13.625V61.3125H6.8125V54.5ZM13.625 47.6875H20.4375V54.5H13.625V47.6875ZM0 47.6875H6.8125V54.5H0V47.6875ZM27.25 47.6875H34.0625V54.5H27.25V47.6875ZM34.0625 54.5H40.875V61.3125H34.0625V54.5ZM40.875 47.6875H47.6875V54.5H40.875V47.6875ZM61.3125 54.5H68.125V61.3125H61.3125V54.5ZM68.125 47.6875H74.9375V54.5H68.125V47.6875ZM74.9375 54.5H81.75V61.3125H74.9375V54.5ZM81.75 47.6875H88.5625V54.5H81.75V47.6875ZM88.5625 54.5H95.375V61.3125H88.5625V54.5ZM95.375 47.6875H102.188V54.5H95.375V47.6875ZM102.188 68.125H109V74.9375H102.188V68.125ZM61.3125 68.125H68.125V74.9375H61.3125V68.125ZM68.125 61.3125H74.9375V68.125H68.125V61.3125ZM74.9375 68.125H81.75V74.9375H74.9375V68.125ZM88.5625 68.125H95.375V74.9375H88.5625V68.125ZM95.375 61.3125H102.188V68.125H95.375V61.3125ZM102.188 81.75H109V88.5625H102.188V81.75ZM61.3125 81.75H68.125V88.5625H61.3125V81.75ZM68.125 74.9375H74.9375V81.75H68.125V74.9375ZM81.75 74.9375H88.5625V81.75H81.75V74.9375ZM88.5625 81.75H95.375V88.5625H88.5625V81.75ZM95.375 74.9375H102.188V81.75H95.375V74.9375ZM102.188 95.375H109V102.188H102.188V95.375ZM68.125 88.5625H74.9375V95.375H68.125V88.5625ZM74.9375 95.375H81.75V102.188H74.9375V95.375ZM81.75 88.5625H88.5625V95.375H81.75V88.5625ZM88.5625 95.375H95.375V102.188H88.5625V95.375ZM68.125 102.188H74.9375V109H68.125V102.188ZM81.75 102.188H88.5625V109H81.75V102.188ZM95.375 102.188H102.188V109H95.375V102.188Z" fill="black"/>
</g>
<defs>
<clipPath id="clip0_514_2995">
<rect width="109" height="109" fill="white"/>
</clipPath>
</defs>
</svg>
