<svg width="30" height="30" viewBox="0 0 30 30" fill="none" xmlns="http://www.w3.org/2000/svg">
<path d="M26.4261 21.9134C25.4956 20.9759 23.2421 19.6077 22.1488 19.0563C20.7249 18.3392 20.6078 18.2806 19.4886 19.112C18.7421 19.6669 18.2458 20.1626 17.3722 19.9763C16.4986 19.7899 14.6001 18.7394 12.9378 17.0823C11.2755 15.4253 10.164 13.4718 9.97709 12.6011C9.79018 11.7304 10.2941 11.2399 10.8437 10.4917C11.6183 9.43701 11.5597 9.26123 10.8976 7.8374C10.3814 6.72998 8.97338 4.49756 8.03237 3.57178C7.02573 2.57744 7.02573 2.75322 6.37709 3.02275C5.84901 3.24489 5.3424 3.51496 4.86362 3.82959C3.92612 4.45244 3.4058 4.96982 3.04194 5.74736C2.67807 6.5249 2.51459 8.34775 4.39369 11.7614C6.2728 15.1751 7.59116 16.9206 10.3199 19.6417C13.0486 22.3628 15.1468 23.8259 18.2142 25.5462C22.0087 27.6714 23.4642 27.2571 24.2441 26.8938C25.024 26.5306 25.5437 26.0149 26.1677 25.0774C26.4831 24.5995 26.7538 24.0934 26.9763 23.5657C27.2464 22.9194 27.4222 22.9194 26.4261 21.9134Z" stroke="#0E1534" stroke-width="1.875" stroke-miterlimit="10"/>
</svg>
