<svg width="41" height="40" viewBox="0 0 41 40" fill="none" xmlns="http://www.w3.org/2000/svg">
<path d="M32.9644 29.9048V17.2698C33.5004 17.2505 34.0156 17.0583 34.4332 16.7218C34.8508 16.3853 35.1483 15.9227 35.2811 15.4032C35.4293 14.8732 35.3948 14.3088 35.1832 13.8009C34.9715 13.293 34.5951 12.871 34.1144 12.6032L21.6978 5.43649C21.3186 5.22331 20.891 5.11133 20.4561 5.11133C20.0211 5.11133 19.5935 5.22331 19.2144 5.43649L6.79775 12.6032C6.3171 12.871 5.94063 13.293 5.72899 13.8009C5.51735 14.3088 5.48286 14.8732 5.63109 15.4032C5.76845 15.939 6.0808 16.4137 6.5186 16.7518C6.9564 17.09 7.49457 17.2723 8.04775 17.2698H8.26442V29.8865H8.06442C7.40138 29.8865 6.7655 30.1499 6.29665 30.6187C5.82781 31.0876 5.56442 31.7234 5.56442 32.3865C5.56442 33.0495 5.82781 33.6854 6.29665 34.1543C6.7655 34.6231 7.40138 34.8865 8.06442 34.8865H32.8478C33.4741 34.8495 34.0636 34.5783 34.4993 34.1269C34.935 33.6754 35.185 33.0766 35.1997 32.4494C35.2144 31.8221 34.9927 31.2123 34.5786 30.7409C34.1645 30.2695 33.5883 29.9711 32.9644 29.9048ZM8.04775 15.6032C7.86406 15.6008 7.68618 15.5384 7.54125 15.4255C7.39633 15.3126 7.29232 15.1554 7.24511 14.9779C7.19789 14.8003 7.21005 14.6122 7.27975 14.4423C7.34944 14.2723 7.47283 14.1298 7.63109 14.0365L20.0478 6.88815C20.1707 6.81304 20.312 6.77331 20.4561 6.77331C20.6002 6.77331 20.7415 6.81304 20.8644 6.88815L33.2894 14.0365C33.4544 14.1254 33.5845 14.2672 33.6589 14.4392C33.7333 14.6112 33.7476 14.8032 33.6995 14.9843C33.6513 15.1654 33.5435 15.3249 33.3935 15.4372C33.2435 15.5495 33.0601 15.608 32.8728 15.6032H8.04775ZM31.2978 17.2698V29.8865H25.2894V17.2698H31.2978ZM23.6144 17.2698V29.8865H17.5978V17.2698H23.6144ZM15.9311 17.2698V29.8865H9.93109V17.2698H15.9311ZM32.8478 33.2198H8.06442C7.84341 33.2198 7.63145 33.132 7.47517 32.9757C7.31889 32.8195 7.23109 32.6075 7.23109 32.3865C7.23109 32.1655 7.31889 31.9535 7.47517 31.7972C7.63145 31.6409 7.84341 31.5532 8.06442 31.5532H32.8478C33.0688 31.5532 33.2807 31.6409 33.437 31.7972C33.5933 31.9535 33.6811 32.1655 33.6811 32.3865C33.6811 32.6075 33.5933 32.8195 33.437 32.9757C33.2807 33.132 33.0688 33.2198 32.8478 33.2198Z" fill="#FE3737"/>
</svg>
