<svg width="33" height="34" viewBox="0 0 33 34" fill="none" xmlns="http://www.w3.org/2000/svg">
<path fill-rule="evenodd" clip-rule="evenodd" d="M22.3384 22.386C22.3887 22.5782 22.3607 22.7826 22.2604 22.9542C22.1602 23.1258 21.9959 23.2506 21.8037 23.3012L12.2344 25.8035C12.0422 25.8538 11.8378 25.8258 11.6662 25.7255C11.4946 25.6252 11.3698 25.461 11.3192 25.2688L8.80047 15.7038C8.75378 15.5128 8.78399 15.3111 8.88458 15.1421C8.98518 14.9731 9.14813 14.8504 9.33832 14.8004C9.52851 14.7504 9.73073 14.7771 9.90143 14.8747C10.0721 14.9724 10.1977 15.1332 10.251 15.3225L12.3088 23.1369L20.4673 9.15156C20.5674 8.97968 20.7317 8.85461 20.924 8.80387C21.1164 8.75312 21.321 8.78086 21.4929 8.88098C21.6647 8.98109 21.7898 9.14539 21.8405 9.33772C21.8913 9.53005 21.8636 9.73466 21.7634 9.90654L13.6026 23.8939L21.4242 21.8495C21.6165 21.7992 21.8209 21.8272 21.9925 21.9275C22.1641 22.0277 22.2889 22.192 22.3394 22.3842" fill="#1E1E1E"/>
</svg>
