<svg width="41" height="40" viewBox="0 0 41 40" fill="none" xmlns="http://www.w3.org/2000/svg">
<path d="M14.8236 33.2379C12.6968 33.2379 10.8883 32.4928 9.39801 31.0025C7.90774 29.5122 7.1626 27.7031 7.1626 25.5753C7.1626 24.6762 7.31538 23.8048 7.62093 22.9609C7.92649 22.1171 8.36773 21.3477 8.94464 20.6527L14.7557 13.6751L11.3141 6.76367H29.4853L26.0437 13.6751L31.8548 20.6527C32.4317 21.3466 32.8729 22.1154 33.1785 22.9593C33.484 23.8042 33.6368 24.6762 33.6368 25.5753C33.6368 27.7031 32.89 29.5122 31.3964 31.0025C29.9029 32.4928 28.096 33.2379 25.9758 33.2379H14.8236ZM20.3997 25.7589C19.6595 25.7589 19.0291 25.4991 18.5085 24.9796C17.9878 24.4589 17.7275 23.8285 17.7275 23.0883C17.7275 22.3471 17.9878 21.7161 18.5085 21.1954C19.0291 20.6748 19.6595 20.4144 20.3997 20.4144C21.1399 20.4144 21.7703 20.6748 22.291 21.1954C22.8116 21.7161 23.0719 22.3471 23.0719 23.0883C23.0719 23.8296 22.8116 24.46 22.291 24.9796C21.7703 25.4991 21.1399 25.7589 20.3997 25.7589ZM16.2797 12.9686H24.5529L26.8114 8.41831H13.988L16.2797 12.9686ZM14.8236 31.5833H25.9758C27.6525 31.5833 29.0728 30.9964 30.2365 29.8227C31.4003 28.649 31.9822 27.2332 31.9822 25.5753C31.9822 24.8715 31.8647 24.1876 31.6297 23.5235C31.3948 22.8594 31.0501 22.2594 30.5956 21.7233L24.672 14.6232H16.1671L10.2369 21.7133C9.78024 22.2516 9.42945 22.8539 9.18457 23.5202C8.93968 24.1865 8.81724 24.8715 8.81724 25.5753C8.81724 27.2321 9.40463 28.6479 10.5794 29.8227C11.7531 30.9964 13.1678 31.5833 14.8236 31.5833Z" fill="#DBAB08"/>
</svg>
