<svg width="35" height="35" viewBox="0 0 35 35" fill="none" xmlns="http://www.w3.org/2000/svg">
<path fill-rule="evenodd" clip-rule="evenodd" d="M12.7951 11.3104C12.7787 11.1123 12.8416 10.9158 12.97 10.7641C13.0984 10.6124 13.2818 10.5179 13.4798 10.5012L23.3374 9.6889C23.5355 9.67253 23.732 9.73545 23.8837 9.86384C24.0354 9.99223 24.13 10.1756 24.1466 10.3736L24.9758 20.2298C24.9888 20.4261 24.9242 20.6195 24.796 20.7686C24.6677 20.9177 24.486 21.0104 24.2901 21.0268C24.0941 21.0432 23.8995 20.982 23.7482 20.8564C23.597 20.7307 23.5011 20.5507 23.4813 20.355L22.8037 12.3026L12.3528 24.6691C12.2246 24.8211 12.0411 24.9159 11.8429 24.9327C11.6447 24.9495 11.448 24.8868 11.296 24.7585C11.144 24.6302 11.0491 24.4468 11.0324 24.2486C11.0156 24.0504 11.0782 23.8537 11.2065 23.7016L21.66 11.3335L13.6029 11.9967C13.4049 12.013 13.2084 11.9501 13.0567 11.8217C12.905 11.6933 12.8104 11.51 12.7938 11.3119" fill="#1E1E1E"/>
</svg>
