<svg width="30" height="30" viewBox="0 0 30 30" fill="none" xmlns="http://www.w3.org/2000/svg">
<path d="M23.5543 9.84375C23.3827 12.2268 21.6149 14.0625 19.6872 14.0625C17.7594 14.0625 15.9887 12.2273 15.82 9.84375C15.6442 7.36465 17.3651 5.625 19.6872 5.625C22.0092 5.625 23.7301 7.40977 23.5543 9.84375Z" stroke="#0E1534" stroke-linecap="round" stroke-linejoin="round"/>
<path d="M19.6873 17.8125C15.8687 17.8125 12.1966 19.7092 11.2767 23.4029C11.1548 23.8916 11.4613 24.375 11.9634 24.375H27.4117C27.9138 24.375 28.2185 23.8916 28.0984 23.4029C27.1785 19.65 23.5064 17.8125 19.6873 17.8125Z" stroke="#0E1534" stroke-miterlimit="10"/>
<path d="M11.7187 10.8949C11.5816 12.798 10.1531 14.2969 8.61323 14.2969C7.07339 14.2969 5.64253 12.7986 5.50776 10.8949C5.36772 8.91504 6.75815 7.5 8.61323 7.5C10.4683 7.5 11.8587 8.95137 11.7187 10.8949Z" stroke="#0E1534" stroke-linecap="round" stroke-linejoin="round"/>
<path d="M12.0699 17.9287C11.0123 17.4441 9.84745 17.2578 8.61288 17.2578C5.566 17.2578 2.63046 18.7725 1.8951 21.7227C1.79842 22.1129 2.04335 22.499 2.44413 22.499H9.02303" stroke="#0E1534" stroke-miterlimit="10" stroke-linecap="round"/>
</svg>
