<svg width="41" height="40" viewBox="0 0 41 40" fill="none" xmlns="http://www.w3.org/2000/svg">
<path d="M17.7227 29.998C17.5569 29.998 17.3979 30.0639 17.2807 30.1811C17.1635 30.2983 17.0977 30.4573 17.0977 30.623C17.0977 30.7888 17.1635 30.9478 17.2807 31.065C17.3979 31.1822 17.5569 31.248 17.7227 31.248H23.9727C24.1384 31.248 24.2974 31.1822 24.4146 31.065C24.5318 30.9478 24.5977 30.7888 24.5977 30.623C24.5977 30.4573 24.5318 30.2983 24.4146 30.1811C24.2974 30.0639 24.1384 29.998 23.9727 29.998H17.7227ZM13.6602 2.49805C12.5827 2.49805 11.5494 2.92606 10.7875 3.68793C10.0257 4.44979 9.59766 5.4831 9.59766 6.56055V33.4355C9.59766 34.513 10.0257 35.5463 10.7875 36.3082C11.5494 37.07 12.5827 37.498 13.6602 37.498H28.0352C29.1126 37.498 30.1459 37.07 30.9078 36.3082C31.6696 35.5463 32.0977 34.513 32.0977 33.4355V6.56055C32.0977 5.4831 31.6696 4.44979 30.9078 3.68793C30.1459 2.92606 29.1126 2.49805 28.0352 2.49805H13.6602ZM10.8477 6.56055C10.8477 5.81463 11.144 5.09926 11.6714 4.57181C12.1989 4.04436 12.9142 3.74805 13.6602 3.74805H28.0352C28.7811 3.74805 29.4964 4.04436 30.0239 4.57181C30.5513 5.09926 30.8477 5.81463 30.8477 6.56055V33.4355C30.8477 34.1815 30.5513 34.8968 30.0239 35.4243C29.4964 35.9517 28.7811 36.248 28.0352 36.248H13.6602C12.9142 36.248 12.1989 35.9517 11.6714 35.4243C11.144 34.8968 10.8477 34.1815 10.8477 33.4355V6.56055Z" fill="#34C759"/>
<path d="M16.4033 26.5111H17.5144V23.1777H18.6255L20.5255 26.5111H23.07V23.1777H24.1811V26.5111H25.2922V27.6222H24.1811V28.7333H25.2922V29.8444H24.1811V33.1777H23.07L21.1644 29.8444H18.6255V33.1777H17.5144V29.8444H16.4033V28.7333H17.5144V27.6222H16.4033V26.5111ZM18.6255 26.5111H19.2533L18.6255 25.4166V26.5111ZM18.6255 27.6222V28.7333H20.5255L19.8922 27.6222H18.6255ZM23.07 30.9555V29.8444H22.4311L23.07 30.9555ZM21.1589 27.6222L21.7978 28.7333H23.07V27.6222H21.1589Z" fill="#34C759"/>
</svg>
