<svg width="40" height="40" viewBox="0 0 40 40" fill="none" xmlns="http://www.w3.org/2000/svg">
<path d="M19.9999 3.33398C10.7949 3.33398 3.33325 10.7957 3.33325 20.0007C3.33325 29.2057 10.7949 36.6673 19.9999 36.6673C29.2049 36.6673 36.6666 29.2057 36.6666 20.0007C36.6666 10.7957 29.2049 3.33398 19.9999 3.33398Z" stroke="#FE3737" stroke-width="2.5" stroke-linecap="round" stroke-linejoin="round"/>
<path d="M7.11816 30.5767C7.11816 30.5767 10.8332 25.8333 19.9998 25.8333C29.1665 25.8333 32.8832 30.5767 32.8832 30.5767M19.9998 20C21.3259 20 22.5977 19.4732 23.5354 18.5355C24.473 17.5979 24.9998 16.3261 24.9998 15C24.9998 13.6739 24.473 12.4021 23.5354 11.4645C22.5977 10.5268 21.3259 10 19.9998 10C18.6737 10 17.402 10.5268 16.4643 11.4645C15.5266 12.4021 14.9998 13.6739 14.9998 15C14.9998 16.3261 15.5266 17.5979 16.4643 18.5355C17.402 19.4732 18.6737 20 19.9998 20Z" stroke="#FE3737" stroke-width="2.5" stroke-linecap="round" stroke-linejoin="round"/>
</svg>
