<svg width="15" height="16" viewBox="0 0 15 16" fill="none" xmlns="http://www.w3.org/2000/svg">
<path d="M6.5 13.0204C5.77764 13.0206 5.06231 12.8786 4.39486 12.6023C3.7274 12.3261 3.12091 11.9211 2.61 11.4104C1.57 10.3704 1 8.99039 1 7.52039C1 6.05039 1.57 4.67039 2.61 3.63039C4.75 1.49039 8.24 1.49039 10.39 3.63039C11.43 4.67039 12 6.05039 12 7.52039C12 8.99039 11.43 10.3704 10.39 11.4104C9.8791 11.9211 9.2726 12.3261 8.60514 12.6023C7.93769 12.8786 7.22236 13.0206 6.5 13.0204ZM6.5 3.02039C5.35 3.02039 4.2 3.46039 3.32 4.34039C2.47 5.19039 2 6.32039 2 7.52039C2 8.72039 2.47 9.85039 3.32 10.7004C4.16504 11.5407 5.3083 12.0123 6.5 12.0123C7.6917 12.0123 8.83496 11.5407 9.68 10.7004C10.53 9.85039 11 8.72039 11 7.52039C11 6.32039 10.53 5.19039 9.68 4.34039C9.26319 3.92152 8.76764 3.58924 8.22187 3.3627C7.67611 3.13615 7.09092 3.01982 6.5 3.02039Z" fill="#A6A6A6"/>
<path d="M13.5 14.9994C13.4344 15.0002 13.3694 14.9872 13.3091 14.9614C13.2488 14.9356 13.1946 14.8974 13.15 14.8494L9.77 11.4694C9.57 11.2694 9.57 10.9594 9.77 10.7594C9.97 10.5594 10.28 10.5594 10.48 10.7594L13.86 14.1394C14.06 14.3394 14.06 14.6494 13.86 14.8494C13.76 14.9494 13.63 14.9994 13.51 14.9994H13.5Z" fill="#A6A6A6"/>
</svg>
