<svg width="24" height="24" viewBox="0 0 24 24" fill="none" xmlns="http://www.w3.org/2000/svg">
<path d="M12.295 9.01453C11.6795 8.95374 11.0602 9.08469 10.522 9.38945C9.98377 9.69421 9.5529 10.1579 9.28838 10.717C9.02385 11.2761 8.9386 11.9033 9.0443 12.5127C9.15001 13.1221 9.44149 13.684 9.87885 14.1213C10.3162 14.5587 10.8781 14.8502 11.4875 14.9559C12.0969 15.0616 12.7241 14.9763 13.2832 14.7118C13.8423 14.4473 14.306 14.0164 14.6107 13.4782C14.9155 12.94 15.0464 12.3207 14.9856 11.7052C14.9163 11.0151 14.6106 10.3703 14.1202 9.87995C13.6299 9.38958 12.985 9.08384 12.295 9.01453ZM19.5185 12C19.5166 12.3261 19.4926 12.6517 19.4467 12.9745L21.566 14.6367C21.6582 14.7132 21.7204 14.8199 21.7414 14.9379C21.7625 15.056 21.741 15.1776 21.6808 15.2812L19.676 18.75C19.6151 18.8527 19.5199 18.9305 19.4072 18.9699C19.2945 19.0093 19.1716 19.0076 19.06 18.9652L16.9553 18.1177C16.8393 18.0714 16.7136 18.0547 16.5895 18.0691C16.4653 18.0834 16.3467 18.1283 16.2442 18.1997C15.923 18.4209 15.5855 18.6174 15.2346 18.7875C15.1242 18.8411 15.0288 18.9211 14.9567 19.0203C14.8846 19.1196 14.838 19.2351 14.8211 19.3566L14.5056 21.6014C14.4849 21.72 14.4237 21.8276 14.3324 21.906C14.2411 21.9844 14.1253 22.0287 14.005 22.0312H9.99533C9.87699 22.0292 9.76288 21.9869 9.6718 21.9113C9.58071 21.8357 9.51809 21.7314 9.49424 21.6155L9.17924 19.3739C9.16155 19.2511 9.11378 19.1345 9.04018 19.0346C8.96658 18.9346 8.86943 18.8544 8.75737 18.8011C8.40681 18.6319 8.07042 18.4349 7.75143 18.2119C7.64929 18.1408 7.53106 18.0963 7.40742 18.0823C7.28377 18.0683 7.15859 18.0853 7.04315 18.1317L4.93893 18.9788C4.82742 19.0212 4.7045 19.023 4.59182 18.9837C4.47915 18.9444 4.38395 18.8666 4.32299 18.7641L2.31815 15.2953C2.25787 15.1917 2.23633 15.07 2.25736 14.952C2.27839 14.834 2.34063 14.7272 2.43299 14.6508L4.22408 13.2445C4.32221 13.1666 4.39933 13.0655 4.44845 12.9502C4.49756 12.835 4.51712 12.7093 4.50533 12.5845C4.48846 12.3891 4.47815 12.1941 4.47815 11.9986C4.47815 11.8031 4.48799 11.6109 4.50533 11.4197C4.51583 11.2957 4.49531 11.1711 4.44564 11.057C4.39597 10.9429 4.31871 10.843 4.2208 10.7662L2.43065 9.36C2.33978 9.28317 2.27886 9.17681 2.25855 9.05957C2.23824 8.94232 2.25983 8.82167 2.31955 8.71875L4.3244 5.25C4.38528 5.14734 4.48045 5.06946 4.59313 5.0301C4.70581 4.99074 4.82877 4.99242 4.94033 5.03484L7.04502 5.88234C7.16109 5.92856 7.2868 5.94525 7.41091 5.93094C7.53501 5.91662 7.65362 5.87174 7.75612 5.80031C8.07733 5.57912 8.41486 5.38262 8.7658 5.2125C8.87614 5.15887 8.97157 5.07891 9.04367 4.97966C9.11578 4.88042 9.16234 4.76494 9.17924 4.64344L9.49471 2.39859C9.51543 2.28004 9.57668 2.17236 9.66799 2.09396C9.7593 2.01555 9.87501 1.9713 9.99533 1.96875H14.005C14.1234 1.9708 14.2375 2.01309 14.3286 2.08867C14.4196 2.16425 14.4823 2.2686 14.5061 2.38453L14.8211 4.62609C14.8388 4.74894 14.8866 4.86551 14.9602 4.96544C15.0338 5.06537 15.1309 5.14557 15.243 5.19891C15.5935 5.36805 15.9299 5.56509 16.2489 5.78813C16.3511 5.85919 16.4693 5.90373 16.5929 5.91772C16.7166 5.93172 16.8418 5.91473 16.9572 5.86828L19.0614 5.02125C19.1729 4.97879 19.2959 4.97704 19.4085 5.01631C19.5212 5.05558 19.6164 5.13336 19.6774 5.23594L21.6822 8.70469C21.7425 8.80832 21.764 8.92999 21.743 9.04802C21.722 9.16604 21.6597 9.27278 21.5674 9.34922L19.7763 10.7555C19.6777 10.8331 19.6001 10.9342 19.5506 11.0494C19.5011 11.1647 19.4812 11.2905 19.4927 11.4155C19.5081 11.6095 19.5185 11.8045 19.5185 12Z" stroke="#1E1E1E" stroke-width="1.5" stroke-linecap="round" stroke-linejoin="round"/>
</svg>
